<svg width="452" height="230" viewBox="0 0 452 230" fill="none" xmlns="http://www.w3.org/2000/svg">
<path d="M274.614 138.004V227.254H51.0104C25.5338 227.254 4.80576 207.235 4.80576 182.629C4.80576 158.024 25.5337 138.004 51.0104 138.004H274.614Z" fill="#F2F2F2"/>
<path d="M280.106 226.567C280.106 227.478 279.744 228.351 279.1 228.994C278.457 229.638 277.584 230 276.674 230H47.0276C34.5551 230 22.5935 225.045 13.7741 216.226C4.95469 207.407 0 195.445 0 182.972C0 170.5 4.95469 158.538 13.7741 149.719C22.5935 140.899 34.5551 135.945 47.0276 135.945H276.674C277.584 135.945 278.457 136.306 279.101 136.95C279.745 137.594 280.106 138.467 280.106 139.377C280.106 140.288 279.745 141.161 279.101 141.805C278.457 142.448 277.584 142.81 276.674 142.81H47.0276C36.3759 142.81 26.1605 147.041 18.6286 154.573C11.0967 162.105 6.86535 172.321 6.86535 182.972C6.86535 193.624 11.0967 203.839 18.6286 211.371C26.1605 218.903 36.3759 223.135 47.0276 223.135H276.674C277.584 223.135 278.457 223.497 279.1 224.14C279.744 224.784 280.106 225.657 280.106 226.567Z" fill="#7190FF"/>
<path d="M274.614 158.6H34.3267C34.1447 158.6 33.97 158.528 33.8413 158.399C33.7125 158.271 33.6402 158.096 33.6402 157.914C33.6402 157.732 33.7125 157.557 33.8413 157.428C33.97 157.3 34.1447 157.227 34.3267 157.227H274.614C274.796 157.227 274.971 157.3 275.099 157.428C275.228 157.557 275.3 157.732 275.3 157.914C275.3 158.096 275.228 158.271 275.099 158.399C274.971 158.528 274.796 158.6 274.614 158.6Z" fill="#CCCCCC"/>
<path d="M274.614 175.077H34.3267C34.1447 175.077 33.97 175.005 33.8413 174.876C33.7125 174.747 33.6402 174.573 33.6402 174.391C33.6402 174.209 33.7125 174.034 33.8413 173.905C33.97 173.776 34.1447 173.704 34.3267 173.704H274.614C274.796 173.704 274.971 173.776 275.099 173.905C275.228 174.034 275.3 174.209 275.3 174.391C275.3 174.573 275.228 174.747 275.099 174.876C274.971 175.005 274.796 175.077 274.614 175.077Z" fill="#CCCCCC"/>
<path d="M274.614 191.554H34.3267C34.1447 191.554 33.97 191.482 33.8413 191.353C33.7125 191.224 33.6402 191.05 33.6402 190.868C33.6402 190.685 33.7125 190.511 33.8413 190.382C33.97 190.253 34.1447 190.181 34.3267 190.181H274.614C274.796 190.181 274.971 190.253 275.099 190.382C275.228 190.511 275.3 190.685 275.3 190.868C275.3 191.05 275.228 191.224 275.099 191.353C274.971 191.482 274.796 191.554 274.614 191.554Z" fill="#CCCCCC"/>
<path d="M274.614 208.031H34.3267C34.1447 208.031 33.97 207.959 33.8413 207.83C33.7125 207.701 33.6402 207.526 33.6402 207.344C33.6402 207.162 33.7125 206.988 33.8413 206.859C33.97 206.73 34.1447 206.658 34.3267 206.658H274.614C274.796 206.658 274.971 206.73 275.099 206.859C275.228 206.988 275.3 207.162 275.3 207.344C275.3 207.526 275.228 207.701 275.099 207.83C274.971 207.959 274.796 208.031 274.614 208.031Z" fill="#CCCCCC"/>
<path d="M447.427 154.804L391.43 224.301L217.314 84.0078C197.476 68.0232 193.896 39.4294 209.334 20.2696C224.772 1.10977 253.473 -1.47365 273.311 14.5109L447.427 154.804Z" fill="#F2F2F2"/>
<path d="M396.137 227.213C395.566 227.921 394.736 228.374 393.831 228.471C392.926 228.569 392.019 228.303 391.31 227.732L212.49 83.6473C202.778 75.8218 196.572 64.4587 195.238 52.0577C193.904 39.6567 197.551 27.2338 205.376 17.5217C213.202 7.80959 224.565 1.60394 236.966 0.269921C249.367 -1.06409 261.79 2.5828 271.502 10.4083L450.323 154.493C450.674 154.776 450.966 155.125 451.182 155.521C451.399 155.916 451.535 156.351 451.583 156.799C451.632 157.247 451.591 157.701 451.464 158.134C451.337 158.566 451.126 158.97 450.843 159.321C450.56 159.672 450.211 159.964 449.815 160.18C449.419 160.396 448.985 160.532 448.537 160.58C448.088 160.628 447.635 160.588 447.202 160.46C446.769 160.333 446.366 160.122 446.015 159.839L267.194 15.7542C263.088 12.4426 258.369 9.97257 253.308 8.4851C248.246 6.99763 242.941 6.52191 237.696 7.08513C232.45 7.64835 227.367 9.23946 222.737 11.7676C218.107 14.2957 214.02 17.7113 210.71 21.8192C207.4 25.9272 204.932 30.647 203.446 35.709C201.961 40.7711 201.487 46.0762 202.052 51.3214C202.618 56.5665 204.211 61.6489 206.741 66.2782C209.271 70.9075 212.688 74.993 216.797 78.3014L395.618 222.386C396.326 222.957 396.779 223.787 396.877 224.692C396.974 225.597 396.708 226.504 396.137 227.213V227.213Z" fill="#CCCCCC"/>
<path d="M434.504 170.842L247.397 20.081C247.327 20.0245 247.269 19.9546 247.226 19.8755C247.182 19.7963 247.155 19.7095 247.146 19.6198C247.136 19.5302 247.144 19.4395 247.169 19.353C247.195 19.2665 247.237 19.1859 247.294 19.1157C247.35 19.0455 247.42 18.9871 247.499 18.9439C247.578 18.9007 247.665 18.8735 247.755 18.8638C247.844 18.8542 247.935 18.8623 248.022 18.8877C248.108 18.9131 248.189 18.9553 248.259 19.0118L435.366 169.773C435.436 169.83 435.495 169.899 435.538 169.979C435.581 170.058 435.609 170.145 435.618 170.234C435.628 170.324 435.62 170.415 435.594 170.501C435.569 170.588 435.527 170.669 435.47 170.739C435.414 170.809 435.344 170.868 435.265 170.911C435.185 170.954 435.098 170.981 435.009 170.991C434.919 171 434.828 170.992 434.742 170.967C434.655 170.941 434.574 170.899 434.504 170.842V170.842Z" fill="#CCCCCC"/>
<path d="M424.166 183.672L237.059 32.9112C236.918 32.7969 236.828 32.631 236.808 32.4502C236.789 32.2693 236.842 32.0881 236.956 31.9464C237.07 31.8048 237.236 31.7142 237.417 31.6946C237.598 31.675 237.779 31.7281 237.921 31.842L425.028 182.603C425.098 182.66 425.157 182.73 425.2 182.809C425.243 182.888 425.271 182.975 425.28 183.064C425.29 183.154 425.282 183.245 425.257 183.332C425.231 183.418 425.189 183.499 425.132 183.569C425.076 183.639 425.006 183.698 424.927 183.741C424.847 183.784 424.76 183.811 424.671 183.821C424.581 183.831 424.49 183.822 424.404 183.797C424.317 183.771 424.237 183.729 424.166 183.672V183.672Z" fill="#CCCCCC"/>
<path d="M413.828 196.503L226.722 45.7414C226.58 45.6271 226.489 45.4613 226.47 45.2802C226.45 45.0992 226.503 44.9178 226.618 44.776C226.732 44.6343 226.898 44.5437 227.079 44.5242C227.26 44.5047 227.441 44.5579 227.583 44.6722L414.69 195.433C414.76 195.49 414.818 195.56 414.862 195.639C414.905 195.718 414.932 195.805 414.942 195.895C414.951 195.984 414.943 196.075 414.918 196.161C414.893 196.248 414.85 196.329 414.794 196.399C414.737 196.469 414.667 196.527 414.588 196.571C414.509 196.614 414.422 196.641 414.333 196.651C414.243 196.66 414.152 196.652 414.066 196.627C413.979 196.601 413.899 196.559 413.828 196.503V196.503Z" fill="#CCCCCC"/>
<path d="M403.491 209.333L216.384 58.5716C216.313 58.515 216.255 58.4452 216.212 58.3661C216.169 58.2869 216.141 58.2001 216.132 58.1104C216.122 58.0208 216.13 57.9301 216.156 57.8436C216.181 57.7571 216.223 57.6765 216.28 57.6063C216.336 57.5361 216.406 57.4777 216.485 57.4345C216.565 57.3913 216.651 57.3641 216.741 57.3544C216.831 57.3448 216.921 57.3529 217.008 57.3783C217.094 57.4037 217.175 57.4459 217.245 57.5024L404.352 208.264C404.422 208.32 404.481 208.39 404.524 208.469C404.567 208.548 404.595 208.635 404.604 208.725C404.614 208.815 404.606 208.905 404.581 208.992C404.555 209.078 404.513 209.159 404.457 209.229C404.4 209.3 404.33 209.358 404.251 209.401C404.172 209.445 404.085 209.472 403.995 209.481C403.905 209.491 403.815 209.483 403.728 209.457C403.641 209.432 403.561 209.389 403.491 209.333V209.333Z" fill="#CCCCCC"/>
</svg>
