<svg width="278" height="230" viewBox="0 0 278 230" fill="none" xmlns="http://www.w3.org/2000/svg">
<path d="M193.817 230C193.197 230 192.587 229.838 192.048 229.532L89.7947 171.722C88.9636 171.25 88.3532 170.469 88.0976 169.548C87.842 168.627 87.962 167.643 88.4313 166.811L168.969 24.3577C169.202 23.9456 169.514 23.5835 169.886 23.292C170.259 23.0004 170.686 22.7852 171.142 22.6586C171.598 22.5319 172.074 22.4964 172.544 22.554C173.014 22.6116 173.468 22.7612 173.88 22.9942L276.133 80.8046C276.964 81.2758 277.575 82.0574 277.83 82.978C278.086 83.8985 277.966 84.8829 277.497 85.7153L196.959 228.168C196.727 228.581 196.416 228.944 196.043 229.235C195.67 229.527 195.243 229.742 194.786 229.867C194.47 229.955 194.144 230 193.817 230Z" fill="#E6E6E6"/>
<path d="M166.117 29.9387L165.706 30.6655L273.774 91.7631L274.185 91.0363L166.117 29.9387Z" fill="white"/>
<path d="M158.721 43.0211L158.31 43.7479L266.378 104.845L266.789 104.119L158.721 43.0211Z" fill="white"/>
<path d="M151.324 56.1035L150.914 56.8303L258.981 117.928L259.392 117.201L151.324 56.1035Z" fill="white"/>
<path d="M143.928 69.1859L143.517 69.9127L251.585 131.01L251.996 130.283L143.928 69.1859Z" fill="white"/>
<path d="M136.532 82.2683L136.121 82.9951L244.189 144.093L244.6 143.366L136.532 82.2683Z" fill="white"/>
<path d="M129.136 95.3507L128.725 96.0775L236.792 157.175L237.203 156.448L129.136 95.3507Z" fill="white"/>
<path d="M121.739 108.433L121.328 109.16L229.396 170.257L229.807 169.531L121.739 108.433Z" fill="white"/>
<path d="M114.343 121.515L113.932 122.242L222 183.34L222.411 182.613L114.343 121.515Z" fill="white"/>
<path d="M106.947 134.598L106.536 135.325L214.603 196.422L215.014 195.695L106.947 134.598Z" fill="white"/>
<path d="M99.5502 147.68L99.1393 148.407L207.207 209.505L207.618 208.778L99.5502 147.68Z" fill="white"/>
<path d="M92.1539 160.763L91.743 161.489L199.811 222.587L200.222 221.86L92.1539 160.763Z" fill="white"/>
<path d="M184.305 208.333C183.685 208.333 183.075 208.172 182.536 207.865L80.2826 150.055C79.4514 149.584 78.8411 148.802 78.5855 147.881C78.3299 146.961 78.4499 145.976 78.9191 145.144L159.457 2.69113C159.69 2.27908 160.001 1.91693 160.374 1.62539C160.747 1.33384 161.174 1.11861 161.63 0.991995C162.086 0.865378 162.562 0.829854 163.032 0.887451C163.502 0.945048 163.956 1.09464 164.367 1.32768L266.621 59.1381C267.452 59.6092 268.062 60.3908 268.318 61.3114C268.574 62.232 268.454 63.2164 267.985 64.0487L187.447 206.501C187.215 206.914 186.904 207.277 186.531 207.569C186.158 207.86 185.73 208.075 185.274 208.201C184.958 208.289 184.632 208.333 184.305 208.333Z" fill="#F2F2F2"/>
<path d="M156.605 8.27212L156.194 8.99891L264.262 70.0965L264.673 69.3697L156.605 8.27212Z" fill="white"/>
<path d="M149.209 21.3545L148.798 22.0813L256.865 83.1789L257.276 82.4521L149.209 21.3545Z" fill="white"/>
<path d="M141.812 34.4369L141.401 35.1637L249.469 96.2613L249.88 95.5345L141.812 34.4369Z" fill="white"/>
<path d="M134.416 47.5193L134.005 48.2461L242.073 109.344L242.484 108.617L134.416 47.5193Z" fill="white"/>
<path d="M127.02 60.6017L126.609 61.3285L234.677 122.426L235.087 121.699L127.02 60.6017Z" fill="white"/>
<path d="M119.623 73.6841L119.212 74.4109L227.28 135.508L227.691 134.782L119.623 73.6841Z" fill="white"/>
<path d="M112.227 86.7665L111.816 87.4933L219.884 148.591L220.295 147.864L112.227 86.7665Z" fill="white"/>
<path d="M104.831 99.8489L104.42 100.576L212.488 161.673L212.899 160.947L104.831 99.8489Z" fill="white"/>
<path d="M97.4344 112.931L97.0235 113.658L205.091 174.756L205.502 174.029L97.4344 112.931Z" fill="white"/>
<path d="M90.0381 126.014L89.6272 126.74L197.695 187.838L198.106 187.111L90.0381 126.014Z" fill="white"/>
<path d="M82.6418 139.096L82.2309 139.823L190.299 200.92L190.71 200.194L82.6418 139.096Z" fill="white"/>
<path d="M174.115 0H10.6978V227.235H174.115C174.702 227.235 175.265 227.002 175.68 226.587C176.095 226.171 176.328 225.609 176.328 225.021V2.21332C176.328 1.62632 176.095 1.06336 175.68 0.648286C175.265 0.233209 174.702 1.26134e-05 174.115 0ZM19.9199 220.964C19.1174 220.964 18.3329 220.726 17.6656 220.28C16.9983 219.834 16.4782 219.2 16.171 218.459C15.8639 217.717 15.7836 216.901 15.9401 216.114C16.0967 215.327 16.4832 214.604 17.0507 214.037C17.6181 213.469 18.3412 213.083 19.1283 212.926C19.9154 212.77 20.7313 212.85 21.4728 213.157C22.2142 213.464 22.848 213.984 23.2938 214.652C23.7397 215.319 23.9777 216.103 23.9777 216.906C23.9777 217.439 23.8727 217.966 23.6688 218.459C23.4649 218.951 23.166 219.398 22.7892 219.775C22.4124 220.152 21.9651 220.451 21.4728 220.655C20.9805 220.859 20.4528 220.964 19.9199 220.964ZM19.9199 200.306C19.1174 200.306 18.3329 200.068 17.6656 199.622C16.9983 199.176 16.4782 198.543 16.1711 197.801C15.8639 197.06 15.7836 196.244 15.9401 195.457C16.0967 194.669 16.4832 193.946 17.0507 193.379C17.6182 192.811 18.3412 192.425 19.1283 192.268C19.9154 192.112 20.7313 192.192 21.4728 192.499C22.2142 192.807 22.848 193.327 23.2938 193.994C23.7397 194.661 23.9777 195.446 23.9777 196.248C23.9777 196.781 23.8728 197.309 23.6688 197.801C23.4649 198.293 23.166 198.741 22.7892 199.118C22.4124 199.494 21.9651 199.793 21.4728 199.997C20.9805 200.201 20.4528 200.306 19.9199 200.306ZM19.9199 179.648C19.1174 179.648 18.3329 179.41 17.6656 178.964C16.9983 178.519 16.4782 177.885 16.1711 177.143C15.8639 176.402 15.7836 175.586 15.9401 174.799C16.0967 174.012 16.4832 173.289 17.0507 172.721C17.6182 172.154 18.3412 171.767 19.1283 171.611C19.9154 171.454 20.7313 171.535 21.4728 171.842C22.2142 172.149 22.848 172.669 23.2938 173.336C23.7397 174.003 23.9777 174.788 23.9777 175.591C23.9777 176.123 23.8727 176.651 23.6688 177.143C23.4649 177.636 23.166 178.083 22.7892 178.46C22.4124 178.837 21.9651 179.136 21.4728 179.339C20.9805 179.543 20.4528 179.648 19.9199 179.648ZM19.9199 158.991C19.1174 158.991 18.3329 158.753 17.6656 158.307C16.9983 157.861 16.4782 157.227 16.1711 156.486C15.8639 155.744 15.7836 154.928 15.9401 154.141C16.0967 153.354 16.4832 152.631 17.0507 152.064C17.6182 151.496 18.3412 151.11 19.1283 150.953C19.9154 150.796 20.7313 150.877 21.4728 151.184C22.2142 151.491 22.848 152.011 23.2938 152.678C23.7397 153.346 23.9777 154.13 23.9777 154.933C23.9777 155.466 23.8727 155.993 23.6688 156.486C23.4649 156.978 23.166 157.425 22.7892 157.802C22.4124 158.179 21.9651 158.478 21.4728 158.682C20.9805 158.886 20.4528 158.991 19.9199 158.991ZM19.9199 138.333C19.1174 138.333 18.3329 138.095 17.6656 137.649C16.9983 137.203 16.4782 136.569 16.1711 135.828C15.8639 135.087 15.7836 134.271 15.9401 133.483C16.0967 132.696 16.4832 131.973 17.0507 131.406C17.6182 130.838 18.3412 130.452 19.1283 130.295C19.9154 130.139 20.7313 130.219 21.4728 130.526C22.2142 130.833 22.848 131.353 23.2938 132.021C23.7397 132.688 23.9777 133.473 23.9777 134.275C23.9777 134.808 23.8727 135.336 23.6688 135.828C23.4649 136.32 23.166 136.768 22.7892 137.144C22.4124 137.521 21.9651 137.82 21.4728 138.024C20.9805 138.228 20.4528 138.333 19.9199 138.333ZM19.9199 117.675C19.1174 117.675 18.3329 117.437 17.6656 116.991C16.9983 116.545 16.4782 115.912 16.1711 115.17C15.8639 114.429 15.7836 113.613 15.9401 112.826C16.0967 112.039 16.4832 111.316 17.0507 110.748C17.6182 110.181 18.3412 109.794 19.1283 109.638C19.9154 109.481 20.7313 109.561 21.4728 109.869C22.2142 110.176 22.848 110.696 23.2938 111.363C23.7397 112.03 23.9777 112.815 23.9777 113.617C23.9777 114.15 23.8727 114.678 23.6688 115.17C23.4649 115.663 23.166 116.11 22.7892 116.487C22.4124 116.863 21.9651 117.162 21.4728 117.366C20.9805 117.57 20.4528 117.675 19.9199 117.675ZM19.9199 97.0175C19.1174 97.0175 18.3329 96.7795 17.6656 96.3336C16.9983 95.8877 16.4782 95.254 16.1711 94.5125C15.8639 93.7711 15.7836 92.9552 15.9401 92.1681C16.0967 91.3809 16.4832 90.6579 17.0507 90.0904C17.6182 89.5229 18.3412 89.1365 19.1283 88.9799C19.9154 88.8233 20.7313 88.9037 21.4728 89.2108C22.2142 89.5179 22.848 90.038 23.2938 90.7053C23.7397 91.3726 23.9777 92.1571 23.9777 92.9597C23.9777 93.4926 23.8727 94.0202 23.6688 94.5125C23.4649 95.0049 23.166 95.4522 22.7892 95.829C22.4124 96.2058 21.9651 96.5047 21.4728 96.7086C20.9805 96.9125 20.4528 97.0175 19.9199 97.0175ZM19.9199 76.3598C19.1174 76.3598 18.3329 76.1218 17.6656 75.6759C16.9983 75.23 16.4782 74.5963 16.1711 73.8548C15.8639 73.1134 15.7836 72.2975 15.9401 71.5104C16.0967 70.7232 16.4832 70.0002 17.0507 69.4327C17.6182 68.8652 18.3412 68.4788 19.1283 68.3222C19.9154 68.1656 20.7313 68.246 21.4728 68.5531C22.2142 68.8602 22.848 69.3803 23.2938 70.0476C23.7397 70.7149 23.9777 71.4994 23.9777 72.302C23.9777 72.8349 23.8727 73.3625 23.6688 73.8548C23.4649 74.3471 23.166 74.7945 22.7892 75.1713C22.4124 75.5481 21.9651 75.847 21.4728 76.0509C20.9805 76.2548 20.4528 76.3598 19.9199 76.3598ZM19.9199 55.702C19.1174 55.702 18.3329 55.4641 17.6656 55.0182C16.9983 54.5723 16.4782 53.9386 16.1711 53.1971C15.8639 52.4557 15.7836 51.6398 15.9401 50.8526C16.0967 50.0655 16.4832 49.3425 17.0507 48.775C17.6182 48.2075 18.3412 47.8211 19.1283 47.6645C19.9154 47.5079 20.7313 47.5883 21.4728 47.8954C22.2142 48.2025 22.848 48.7226 23.2938 49.3899C23.7397 50.0572 23.9777 50.8417 23.9777 51.6443C23.9777 52.1771 23.8727 52.7048 23.6688 53.1971C23.4649 53.6894 23.166 54.1368 22.7892 54.5136C22.4124 54.8904 21.9651 55.1892 21.4728 55.3932C20.9805 55.5971 20.4528 55.702 19.9199 55.702ZM19.9199 35.0443C19.1174 35.0443 18.3329 34.8064 17.6656 34.3605C16.9983 33.9146 16.4782 33.2809 16.171 32.5394C15.8639 31.7979 15.7836 30.9821 15.9401 30.1949C16.0967 29.4078 16.4832 28.6848 17.0507 28.1173C17.6181 27.5498 18.3412 27.1633 19.1283 27.0068C19.9154 26.8502 20.7313 26.9305 21.4728 27.2377C22.2142 27.5448 22.848 28.0649 23.2938 28.7322C23.7397 29.3995 23.9777 30.184 23.9777 30.9866C23.9777 31.5194 23.8727 32.0471 23.6688 32.5394C23.4649 33.0317 23.166 33.479 22.7892 33.8558C22.4124 34.2326 21.9651 34.5315 21.4728 34.7355C20.9805 34.9394 20.4528 35.0443 19.9199 35.0443ZM19.9199 14.3866C19.1174 14.3866 18.3329 14.1486 17.6656 13.7028C16.9983 13.2569 16.4782 12.6232 16.171 11.8817C15.8639 11.1402 15.7836 10.3244 15.9401 9.53722C16.0967 8.75009 16.4832 8.02707 17.0507 7.45959C17.6181 6.8921 18.3412 6.50563 19.1283 6.34906C19.9154 6.19249 20.7313 6.27284 21.4728 6.57996C22.2142 6.88709 22.848 7.40718 23.2938 8.07448C23.7397 8.74178 23.9777 9.5263 23.9777 10.3289C23.9777 10.8617 23.8727 11.3894 23.6688 11.8817C23.4649 12.374 23.166 12.8213 22.7892 13.1981C22.4124 13.5749 21.9651 13.8738 21.4728 14.0777C20.9805 14.2817 20.4528 14.3866 19.9199 14.3866Z" fill="#3F3D56"/>
<path d="M10.6977 12.5422C9.60278 12.5422 0 12.4905 0 10.6977C0 8.905 9.60278 8.8533 10.6977 8.8533V9.59108C5.04181 9.59108 1.37441 10.2242 0.783794 10.6977C1.37441 11.1713 5.04181 11.8044 10.6977 11.8044C16.3411 11.8044 20.0047 11.174 20.6076 10.701C20.3207 10.4984 19.1485 10.0736 16.0045 9.80183L16.068 9.06694C21.3955 9.52733 21.3955 10.3777 21.3955 10.6977C21.3955 12.4905 11.7927 12.5422 10.6977 12.5422Z" fill="#2F2E41"/>
<path d="M10.6977 32.831C9.60278 32.831 0 32.7793 0 30.9866C0 29.1938 9.60278 29.1421 10.6977 29.1421V29.8799C5.04181 29.8799 1.37441 30.513 0.783794 30.9866C1.37441 31.4601 5.04181 32.0933 10.6977 32.0933C16.3411 32.0933 20.0047 31.4628 20.6076 30.9898C20.3207 30.7872 19.1485 30.3625 16.0045 30.0907L16.068 29.3558C21.3955 29.8162 21.3955 30.6665 21.3955 30.9866C21.3955 32.7793 11.7927 32.831 10.6977 32.831Z" fill="#2F2E41"/>
<path d="M10.6977 53.4887C9.60278 53.4887 0 53.437 0 51.6443C0 49.8515 9.60278 49.7999 10.6977 49.7999V50.5376C5.04181 50.5376 1.37441 51.1707 0.783794 51.6443C1.37441 52.1178 5.04181 52.7509 10.6977 52.7509C16.3411 52.7509 20.0047 52.1205 20.6076 51.6475C20.3207 51.4449 19.1485 51.0202 16.0045 50.7484L16.068 50.0135C21.3955 50.4739 21.3955 51.3242 21.3955 51.6443C21.3955 53.437 11.7927 53.4887 10.6977 53.4887Z" fill="#2F2E41"/>
<path d="M10.6977 74.1464C9.60278 74.1464 0 74.0947 0 72.302C0 70.5092 9.60278 70.4576 10.6977 70.4576V71.1953C5.04181 71.1953 1.37441 71.8285 0.783794 72.302C1.37441 72.7755 5.04181 73.4087 10.6977 73.4087C16.3411 73.4087 20.0047 72.7782 20.6076 72.3052C20.3207 72.1026 19.1485 71.6779 16.0045 71.4061L16.068 70.6712C21.3955 71.1316 21.3955 71.9819 21.3955 72.302C21.3955 74.0947 11.7927 74.1464 10.6977 74.1464Z" fill="#2F2E41"/>
<path d="M10.6977 94.8041C9.60278 94.8041 0 94.7525 0 92.9597C0 91.167 9.60278 91.1153 10.6977 91.1153V91.853C5.04181 91.853 1.37441 92.4862 0.783794 92.9597C1.37441 93.4332 5.04181 94.0664 10.6977 94.0664C16.3411 94.0664 20.0047 93.4359 20.6076 92.963C20.3207 92.7603 19.1485 92.3356 16.0045 92.0638L16.068 91.3289C21.3955 91.7893 21.3955 92.6396 21.3955 92.9597C21.3955 94.7525 11.7927 94.8041 10.6977 94.8041Z" fill="#2F2E41"/>
<path d="M10.6977 115.462C9.60278 115.462 0 115.41 0 113.617C0 111.825 9.60278 111.773 10.6977 111.773V112.511C5.04181 112.511 1.37441 113.144 0.783794 113.617C1.37441 114.091 5.04181 114.724 10.6977 114.724C16.3411 114.724 20.0047 114.094 20.6076 113.621C20.3207 113.418 19.1485 112.993 16.0045 112.721L16.068 111.987C21.3955 112.447 21.3955 113.297 21.3955 113.617C21.3955 115.41 11.7927 115.462 10.6977 115.462Z" fill="#2F2E41"/>
<path d="M10.6977 136.12C9.60278 136.12 0 136.068 0 134.275C0 132.482 9.60278 132.431 10.6977 132.431V133.168C5.04181 133.168 1.37441 133.802 0.783794 134.275C1.37441 134.749 5.04181 135.382 10.6977 135.382C16.3411 135.382 20.0047 134.751 20.6076 134.278C20.3207 134.076 19.1485 133.651 16.0045 133.379L16.068 132.644C21.3955 133.105 21.3955 133.955 21.3955 134.275C21.3955 136.068 11.7927 136.12 10.6977 136.12Z" fill="#2F2E41"/>
<path d="M10.6977 156.777C9.60278 156.777 0 156.726 0 154.933C0 153.14 9.60278 153.088 10.6977 153.088V153.826C5.04181 153.826 1.37441 154.459 0.783794 154.933C1.37441 155.406 5.04181 156.04 10.6977 156.04C16.3411 156.04 20.0047 155.409 20.6076 154.936C20.3207 154.733 19.1485 154.309 16.0045 154.037L16.068 153.302C21.3955 153.762 21.3955 154.613 21.3955 154.933C21.3955 156.726 11.7927 156.777 10.6977 156.777Z" fill="#2F2E41"/>
<path d="M10.6977 177.435C9.60278 177.435 0 177.383 0 175.591C0 173.798 9.60278 173.746 10.6977 173.746V174.484C5.04181 174.484 1.37441 175.117 0.783794 175.591C1.37441 176.064 5.04181 176.697 10.6977 176.697C16.3411 176.697 20.0047 176.067 20.6076 175.594C20.3207 175.391 19.1485 174.966 16.0045 174.695L16.068 173.96C21.3955 174.42 21.3955 175.27 21.3955 175.591C21.3955 177.383 11.7927 177.435 10.6977 177.435Z" fill="#2F2E41"/>
<path d="M10.6977 198.093C9.60278 198.093 0 198.041 0 196.248C0 194.455 9.60278 194.404 10.6977 194.404V195.142C5.04181 195.142 1.37441 195.775 0.783794 196.248C1.37441 196.722 5.04181 197.355 10.6977 197.355C16.3411 197.355 20.0047 196.724 20.6076 196.251C20.3207 196.049 19.1485 195.624 16.0045 195.352L16.068 194.617C21.3955 195.078 21.3955 195.928 21.3955 196.248C21.3955 198.041 11.7927 198.093 10.6977 198.093Z" fill="#2F2E41"/>
<path d="M10.6977 218.75C9.60278 218.75 0 218.699 0 216.906C0 215.113 9.60278 215.062 10.6977 215.062V215.799C5.04181 215.799 1.37441 216.432 0.783794 216.906C1.37441 217.379 5.04181 218.013 10.6977 218.013C16.3411 218.013 20.0047 217.382 20.6076 216.909C20.3207 216.707 19.1485 216.282 16.0045 216.01L16.068 215.275C21.3955 215.736 21.3955 216.586 21.3955 216.906C21.3955 218.699 11.7927 218.75 10.6977 218.75Z" fill="#2F2E41"/>
<path d="M140.731 86.873H59.5754C58.9397 86.8723 58.3302 86.6195 57.8807 86.17C57.4312 85.7204 57.1783 85.111 57.1776 84.4753V52.7509C57.1783 52.1152 57.4312 51.5058 57.8807 51.0563C58.3302 50.6067 58.9397 50.3539 59.5754 50.3532H140.731C141.366 50.3539 141.976 50.6067 142.425 51.0563C142.875 51.5058 143.128 52.1152 143.128 52.7509V84.4753C143.128 85.111 142.875 85.7205 142.425 86.17C141.976 86.6195 141.366 86.8723 140.731 86.873Z" fill="white"/>
<path d="M110.482 61.2354H89.8242C89.335 61.2354 88.8659 61.041 88.52 60.6951C88.1741 60.3492 87.9797 59.8801 87.9797 59.3909C87.9797 58.9017 88.1741 58.4326 88.52 58.0867C88.8659 57.7408 89.335 57.5465 89.8242 57.5465H110.482C110.971 57.5465 111.44 57.7408 111.786 58.0867C112.132 58.4326 112.326 58.9017 112.326 59.3909C112.326 59.8801 112.132 60.3492 111.786 60.6951C111.44 61.041 110.971 61.2354 110.482 61.2354H110.482Z" fill="#7190FF"/>
<path d="M121.917 70.4575H78.3886C77.8995 70.4575 77.4303 70.2632 77.0844 69.9173C76.7385 69.5714 76.5442 69.1023 76.5442 68.6131C76.5442 68.1239 76.7385 67.6548 77.0844 67.3089C77.4303 66.963 77.8995 66.7687 78.3886 66.7687H121.917C122.407 66.7687 122.876 66.963 123.222 67.3089C123.567 67.6548 123.762 68.1239 123.762 68.6131C123.762 69.1023 123.567 69.5714 123.222 69.9173C122.876 70.2632 122.407 70.4575 121.917 70.4575Z" fill="#7190FF"/>
<path d="M121.917 79.6797H78.3886C77.8995 79.6797 77.4303 79.4854 77.0844 79.1395C76.7385 78.7936 76.5442 78.3245 76.5442 77.8353C76.5442 77.3461 76.7385 76.877 77.0844 76.5311C77.4303 76.1852 77.8995 75.9909 78.3886 75.9909H121.917C122.407 75.9909 122.876 76.1852 123.222 76.5311C123.567 76.877 123.762 77.3461 123.762 77.8353C123.762 78.3245 123.567 78.7936 123.222 79.1395C122.876 79.4854 122.407 79.6797 121.917 79.6797Z" fill="#7190FF"/>
</svg>
