<svg width="138" height="187" viewBox="0 0 138 187" fill="none" xmlns="http://www.w3.org/2000/svg">
<path d="M125.6 19.5961V149.301C124.288 150.145 122.96 150.951 121.609 151.733V19.5961H125.6Z" fill="#7190FF"/>
<path d="M71.1151 62.57V165.715C70.5319 165.723 69.9487 165.731 69.3655 165.731C68.6134 165.731 67.8691 165.723 67.1247 165.708V62.57H71.1151Z" fill="#7190FF"/>
<path d="M16.6303 19.5961V151.449C15.2797 150.659 13.9495 149.838 12.6399 148.986V19.5961H16.6303Z" fill="#7190FF"/>
<path d="M123.083 29.9022C131.135 29.9022 137.663 23.3743 137.663 15.3217C137.663 7.26919 131.135 0.741302 123.083 0.741302C115.03 0.741302 108.502 7.26919 108.502 15.3217C108.502 23.3743 115.03 29.9022 123.083 29.9022Z" fill="#7190FF"/>
<path d="M130.568 9.24507C130.348 9.03583 130.057 8.9191 129.754 8.9191C129.451 8.9191 129.159 9.03583 128.94 9.24507C125.846 11.7125 123.067 14.5508 120.666 17.6962C120.076 16.5556 119.487 15.4149 118.897 14.2742C118.217 12.9576 116.23 14.1207 116.909 15.4362C117.772 17.1046 118.634 18.773 119.496 20.4414C119.6 20.6117 119.746 20.7525 119.92 20.8501C120.094 20.9478 120.291 20.999 120.49 20.999C120.69 20.999 120.886 20.9478 121.06 20.8501C121.234 20.7525 121.38 20.6117 121.484 20.4414C124.043 16.8374 127.101 13.6157 130.568 10.873C130.782 10.6562 130.902 10.3637 130.902 10.059C130.902 9.75428 130.782 9.46183 130.568 9.24507V9.24507Z" fill="white"/>
<path d="M69.3654 72.8761C77.418 72.8761 83.9459 66.3482 83.9459 58.2957C83.9459 50.2431 77.418 43.7152 69.3654 43.7152C61.3129 43.7152 54.785 50.2431 54.785 58.2957C54.785 66.3482 61.3129 72.8761 69.3654 72.8761Z" fill="#7190FF"/>
<path d="M76.8502 52.219C76.6308 52.0098 76.3393 51.8931 76.0362 51.8931C75.7331 51.8931 75.4416 52.0098 75.2223 52.219C72.1285 54.6865 69.3497 57.5248 66.9484 60.6702C66.3588 59.5295 65.7693 58.3889 65.1799 57.2482C64.4994 55.9316 62.5121 57.0947 63.192 58.4102C64.0543 60.0786 64.9165 61.747 65.7788 63.4154C65.8828 63.5857 66.0288 63.7264 66.2029 63.8241C66.3769 63.9217 66.5731 63.973 66.7727 63.973C66.9723 63.973 67.1685 63.9217 67.3426 63.8241C67.5166 63.7264 67.6626 63.5857 67.7667 63.4154C70.3256 59.8114 73.384 56.5897 76.8502 53.8469C77.0643 53.6302 77.1845 53.3377 77.1845 53.033C77.1845 52.7282 77.0643 52.4358 76.8502 52.219V52.219Z" fill="white"/>
<path d="M14.8806 32.9718C22.9332 32.9718 29.4611 26.4439 29.4611 18.3913C29.4611 10.3388 22.9332 3.81088 14.8806 3.81088C6.82806 3.81088 0.300171 10.3388 0.300171 18.3913C0.300171 26.4439 6.82806 32.9718 14.8806 32.9718Z" fill="#7190FF"/>
<path d="M22.3653 12.3146C22.146 12.1054 21.8545 11.9887 21.5514 11.9887C21.2482 11.9887 20.9568 12.1054 20.7374 12.3146C17.6437 14.7821 14.8649 17.6204 12.4636 20.7658C11.874 19.6251 11.2845 18.4845 10.6951 17.3438C10.0146 16.0272 8.02731 17.1903 8.70721 18.5058C9.56944 20.1742 10.4317 21.8426 11.2939 23.511C11.3979 23.6813 11.544 23.822 11.718 23.9197C11.8921 24.0173 12.0883 24.0686 12.2879 24.0686C12.4874 24.0686 12.6837 24.0173 12.8578 23.9197C13.0318 23.822 13.1778 23.6813 13.2818 23.511C15.8407 19.907 18.8992 16.6853 22.3653 13.9425C22.5795 13.7258 22.6997 13.4333 22.6997 13.1286C22.6997 12.8239 22.5795 12.5314 22.3653 12.3146V12.3146Z" fill="white"/>
<path d="M14.4274 178.559C18.9159 178.559 22.5545 174.92 22.5545 170.432C22.5545 165.943 18.9159 162.304 14.4274 162.304C9.93895 162.304 6.30032 165.943 6.30032 170.432C6.30032 174.92 9.93895 178.559 14.4274 178.559Z" fill="#E6E6E6"/>
<path d="M68.9123 187C73.4007 187 77.0394 183.361 77.0394 178.873C77.0394 174.384 73.4007 170.746 68.9123 170.746C64.4238 170.746 60.7852 174.384 60.7852 178.873C60.7852 183.361 64.4238 187 68.9123 187Z" fill="#E6E6E6"/>
<path d="M123.397 177.024C127.886 177.024 131.524 173.385 131.524 168.897C131.524 164.408 127.886 160.77 123.397 160.77C118.909 160.77 115.27 164.408 115.27 168.897C115.27 173.385 118.909 177.024 123.397 177.024Z" fill="#E6E6E6"/>
</svg>
