<svg width="182" height="234" viewBox="0 0 182 234" fill="none" xmlns="http://www.w3.org/2000/svg">
<path d="M158.908 21.4703H5.4895C4.66687 21.4703 4 22.1372 4 22.9598V228.51C4 229.333 4.66687 230 5.4895 230H158.908C159.73 230 160.397 229.333 160.397 228.51V22.9598C160.397 22.1372 159.73 21.4703 158.908 21.4703Z" fill="white" stroke="#E6E6E6" stroke-width="7"/>
<path d="M136.937 68.1557H27.4585C26.7178 68.1557 26.0074 67.8614 25.4836 67.3377C24.9599 66.8139 24.6657 66.1036 24.6657 65.3629C24.6657 64.6222 24.9599 63.9118 25.4836 63.3881C26.0074 62.8643 26.7178 62.5701 27.4585 62.5701H136.937C137.677 62.5701 138.388 62.8643 138.911 63.3881C139.435 63.9118 139.729 64.6222 139.729 65.3629C139.729 66.1036 139.435 66.8139 138.911 67.3377C138.388 67.8614 137.677 68.1557 136.937 68.1557Z" fill="#CCCCCC"/>
<path d="M136.937 86.2159H27.4585C26.7178 86.2159 26.0074 85.9216 25.4836 85.3979C24.9599 84.8741 24.6657 84.1638 24.6657 83.4231C24.6657 82.6824 24.9599 81.972 25.4836 81.4482C26.0074 80.9245 26.7178 80.6302 27.4585 80.6302H136.937C137.677 80.6302 138.388 80.9245 138.911 81.4482C139.435 81.972 139.729 82.6824 139.729 83.4231C139.729 84.1638 139.435 84.8741 138.911 85.3979C138.388 85.9216 137.677 86.2159 136.937 86.2159Z" fill="#E6E6E6"/>
<path d="M136.937 104.276H27.4585C26.7178 104.276 26.0074 103.982 25.4836 103.458C24.9599 102.934 24.6657 102.224 24.6657 101.483C24.6657 100.743 24.9599 100.032 25.4836 99.5084C26.0074 98.9846 26.7178 98.6904 27.4585 98.6904H136.937C137.677 98.6904 138.388 98.9846 138.911 99.5084C139.435 100.032 139.729 100.743 139.729 101.483C139.729 102.224 139.435 102.934 138.911 103.458C138.388 103.982 137.677 104.276 136.937 104.276Z" fill="#CCCCCC"/>
<path d="M136.937 122.336H27.4585C26.7178 122.336 26.0074 122.042 25.4836 121.518C24.9599 120.994 24.6657 120.284 24.6657 119.543C24.6657 118.803 24.9599 118.092 25.4836 117.569C26.0074 117.045 26.7178 116.751 27.4585 116.751H136.937C137.677 116.751 138.388 117.045 138.911 117.569C139.435 118.092 139.729 118.803 139.729 119.543C139.729 120.284 139.435 120.994 138.911 121.518C138.388 122.042 137.677 122.336 136.937 122.336Z" fill="#E6E6E6"/>
<path d="M136.937 140.396H27.4585C26.7178 140.396 26.0074 140.102 25.4836 139.578C24.9599 139.055 24.6657 138.344 24.6657 137.604C24.6657 136.863 24.9599 136.152 25.4836 135.629C26.0074 135.105 26.7178 134.811 27.4585 134.811H136.937C137.677 134.811 138.388 135.105 138.911 135.629C139.435 136.152 139.729 136.863 139.729 137.604C139.729 138.344 139.435 139.055 138.911 139.578C138.388 140.102 137.677 140.396 136.937 140.396Z" fill="#CCCCCC"/>
<path d="M137.876 181.006H65.2452C64.2219 181.006 63.3922 179.756 63.3922 178.213C63.3922 176.671 64.2219 175.421 65.2452 175.421H137.876C138.9 175.421 139.729 176.671 139.729 178.213C139.729 179.756 138.9 181.006 137.876 181.006Z" fill="#CCCCCC"/>
<path d="M137.876 197.018H65.2452C64.2219 197.018 63.3922 195.768 63.3922 194.226C63.3922 192.683 64.2219 191.433 65.2452 191.433H137.876C138.9 191.433 139.729 192.683 139.729 194.226C139.729 195.768 138.9 197.018 137.876 197.018Z" fill="#E6E6E6"/>
<path d="M160.397 42.9415C172.255 42.9415 181.868 33.3287 181.868 21.4707C181.868 9.61277 172.255 0 160.397 0C148.539 0 138.927 9.61277 138.927 21.4707C138.927 33.3287 148.539 42.9415 160.397 42.9415Z" fill="#7190FF"/>
<path d="M151.451 20.0535C151.076 20.0535 150.715 20.2027 150.449 20.4685C150.184 20.7342 150.034 21.0946 150.034 21.4704C150.034 21.8461 150.184 22.2065 150.449 22.4722C150.715 22.738 151.076 22.8872 151.451 22.8872H158.981V30.4163C158.982 30.7914 159.131 31.151 159.397 31.4159C159.662 31.6809 160.022 31.8297 160.397 31.8297C160.773 31.8297 161.132 31.6809 161.398 31.4159C161.664 31.151 161.813 30.7914 161.814 30.4163V22.8872H169.344C169.719 22.8872 170.08 22.738 170.345 22.4722C170.611 22.2065 170.76 21.8461 170.76 21.4704C170.76 21.0946 170.611 20.7342 170.345 20.4685C170.08 20.2027 169.719 20.0535 169.344 20.0535H161.814V12.5241C161.814 12.1483 161.665 11.788 161.399 11.5223C161.133 11.2566 160.773 11.1074 160.397 11.1074C160.022 11.1074 159.661 11.2566 159.396 11.5223C159.13 11.788 158.981 12.1483 158.981 12.5241V20.0535H151.451Z" fill="white"/>
</svg>
