<svg width="215" height="230" viewBox="0 0 215 230" fill="none" xmlns="http://www.w3.org/2000/svg">
<path d="M164.933 0H18.7007C13.7427 0.00558273 8.98933 1.97764 5.48346 5.48351C1.9776 8.98938 0.00557036 13.7428 0 18.7008V190.408C0.0055714 195.366 1.9776 200.119 5.48346 203.625C8.98933 207.131 13.7427 209.103 18.7007 209.109H164.933C169.891 209.103 174.645 207.131 178.15 203.625C181.656 200.119 183.628 195.366 183.634 190.408V18.7008C183.628 13.7428 181.656 8.98938 178.15 5.48351C174.645 1.97764 169.891 0.00558273 164.933 0V0Z" fill="#E6E6E6"/>
<path d="M164.933 5.38351H18.7007C15.17 5.38747 11.785 6.79181 9.2884 9.28842C6.79179 11.785 5.38745 15.17 5.38348 18.7008V190.408C5.38745 193.939 6.79179 197.324 9.2884 199.82C11.785 202.317 15.17 203.721 18.7007 203.725H164.933C168.464 203.721 171.849 202.317 174.346 199.82C176.842 197.324 178.246 193.939 178.25 190.408V18.7008C178.246 15.17 176.842 11.7851 174.346 9.28847C171.849 6.79187 168.464 5.38751 164.933 5.38351V5.38351Z" fill="white"/>
<path d="M180.296 230C199.15 230 214.434 214.716 214.434 195.862C214.434 177.009 199.15 161.725 180.296 161.725C161.442 161.725 146.159 177.009 146.159 195.862C146.159 214.716 161.442 230 180.296 230Z" fill="#7190FF"/>
<path d="M196.623 191.41H184.749V179.536C184.749 178.355 184.28 177.222 183.445 176.387C182.61 175.552 181.477 175.083 180.296 175.083C179.115 175.083 177.983 175.552 177.148 176.387C176.312 177.222 175.843 178.355 175.843 179.536V191.41H163.969C162.788 191.41 161.656 191.879 160.821 192.714C159.986 193.549 159.517 194.682 159.517 195.862C159.517 197.043 159.986 198.176 160.821 199.011C161.656 199.846 162.788 200.315 163.969 200.315H175.843V212.189C175.843 213.37 176.312 214.503 177.148 215.338C177.983 216.173 179.115 216.642 180.296 216.642C181.477 216.642 182.61 216.173 183.445 215.338C184.28 214.503 184.749 213.37 184.749 212.189V200.315H196.623C197.804 200.315 198.936 199.846 199.771 199.011C200.606 198.176 201.075 197.043 201.075 195.862C201.075 194.682 200.606 193.549 199.771 192.714C198.936 191.879 197.804 191.41 196.623 191.41V191.41Z" fill="white"/>
<path d="M142.925 99.7362H68.9764C68.5672 99.7366 68.1619 99.6564 67.7836 99.5001C67.4054 99.3438 67.0617 99.1145 66.7721 98.8253C66.4826 98.5361 66.2529 98.1926 66.0962 97.8145C65.9394 97.4365 65.8588 97.0312 65.8588 96.622C65.8588 96.2127 65.9394 95.8075 66.0962 95.4294C66.2529 95.0514 66.4826 94.7079 66.7721 94.4187C67.0617 94.1295 67.4054 93.9002 67.7836 93.7439C68.1619 93.5876 68.5672 93.5074 68.9764 93.5078H142.925C143.75 93.5087 144.542 93.8372 145.125 94.4212C145.708 95.0051 146.036 95.7967 146.036 96.622C146.036 97.4473 145.708 98.2389 145.125 98.8228C144.542 99.4067 143.75 99.7353 142.925 99.7362V99.7362Z" fill="#E6E6E6"/>
<path d="M155.771 110.247H68.9764C68.5672 110.247 68.1619 110.167 67.7836 110.01C67.4054 109.854 67.0617 109.625 66.7721 109.336C66.4826 109.046 66.2529 108.703 66.0962 108.325C65.9394 107.947 65.8588 107.542 65.8588 107.132C65.8588 106.723 65.9394 106.318 66.0962 105.94C66.2529 105.562 66.4826 105.218 66.7721 104.929C67.0617 104.64 67.4054 104.411 67.7836 104.254C68.1619 104.098 68.5672 104.018 68.9764 104.018H155.771C156.597 104.018 157.389 104.346 157.973 104.93C158.557 105.514 158.885 106.306 158.885 107.132C158.885 107.958 158.557 108.75 157.973 109.334C157.389 109.918 156.597 110.247 155.771 110.247Z" fill="#E6E6E6"/>
<path d="M142.925 146.838H68.9764C68.5672 146.839 68.1619 146.758 67.7836 146.602C67.4054 146.446 67.0617 146.216 66.7721 145.927C66.4826 145.638 66.2529 145.295 66.0962 144.916C65.9394 144.538 65.8588 144.133 65.8588 143.724C65.8588 143.315 65.9394 142.909 66.0962 142.531C66.2529 142.153 66.4826 141.81 66.7721 141.521C67.0617 141.231 67.4054 141.002 67.7836 140.846C68.1619 140.69 68.5672 140.609 68.9764 140.61H142.925C143.751 140.61 144.543 140.938 145.127 141.522C145.711 142.106 146.039 142.898 146.039 143.724C146.039 144.55 145.711 145.342 145.127 145.926C144.543 146.51 143.751 146.838 142.925 146.838V146.838Z" fill="#E6E6E6"/>
<path d="M155.771 157.348H68.9764C68.5672 157.349 68.1619 157.269 67.7836 157.112C67.4054 156.956 67.0617 156.727 66.7721 156.438C66.4826 156.148 66.2529 155.805 66.0962 155.427C65.9394 155.049 65.8588 154.644 65.8588 154.234C65.8588 153.825 65.9394 153.42 66.0962 153.042C66.2529 152.664 66.4826 152.32 66.7721 152.031C67.0617 151.742 67.4054 151.512 67.7836 151.356C68.1619 151.2 68.5672 151.12 68.9764 151.12H155.771C156.18 151.12 156.586 151.2 156.964 151.356C157.342 151.512 157.686 151.742 157.975 152.031C158.265 152.32 158.495 152.664 158.651 153.042C158.808 153.42 158.889 153.825 158.889 154.234C158.889 154.644 158.808 155.049 158.651 155.427C158.495 155.805 158.265 156.148 157.975 156.438C157.686 156.727 157.342 156.956 156.964 157.112C156.586 157.269 156.18 157.349 155.771 157.348Z" fill="#E6E6E6"/>
<path d="M52.4115 115.018H26.2418C25.8459 115.017 25.4663 114.86 25.1864 114.58C24.9064 114.3 24.7489 113.92 24.7485 113.525V90.2298C24.7489 89.8339 24.9064 89.4543 25.1864 89.1744C25.4663 88.8944 25.8459 88.737 26.2418 88.7365H52.4115C52.8074 88.737 53.187 88.8944 53.4669 89.1744C53.7469 89.4543 53.9043 89.8339 53.9048 90.2298V113.525C53.9043 113.92 53.7469 114.3 53.4669 114.58C53.187 114.86 52.8074 115.017 52.4115 115.018V115.018Z" fill="#E6E6E6"/>
<path d="M52.4115 162.12H26.2418C25.8459 162.119 25.4663 161.962 25.1864 161.682C24.9064 161.402 24.7489 161.022 24.7485 160.627V137.332C24.7489 136.936 24.9064 136.556 25.1864 136.276C25.4663 135.996 25.8459 135.839 26.2418 135.839H52.4115C52.8074 135.839 53.187 135.996 53.4669 136.276C53.7469 136.556 53.9043 136.936 53.9048 137.332V160.627C53.9043 161.022 53.7469 161.402 53.4669 161.682C53.187 161.962 52.8074 162.119 52.4115 162.12V162.12Z" fill="#E6E6E6"/>
<path d="M143.007 47.3024H88.4878C87.6619 47.3024 86.8698 46.9743 86.2858 46.3903C85.7018 45.8063 85.3737 45.0142 85.3737 44.1882C85.3737 43.3623 85.7018 42.5702 86.2858 41.9862C86.8698 41.4022 87.6619 41.0741 88.4878 41.0741H143.007C143.833 41.0741 144.625 41.4022 145.209 41.9862C145.793 42.5702 146.121 43.3623 146.121 44.1882C146.121 45.0142 145.793 45.8063 145.209 46.3903C144.625 46.9743 143.833 47.3024 143.007 47.3024Z" fill="#CCCCCC"/>
<path d="M155.853 57.8127H88.4878C88.0789 57.8127 87.6739 57.7322 87.2961 57.5757C86.9183 57.4192 86.575 57.1898 86.2858 56.9006C85.9966 56.6114 85.7672 56.2681 85.6107 55.8903C85.4542 55.5125 85.3737 55.1075 85.3737 54.6986C85.3737 54.2896 85.4542 53.8846 85.6107 53.5068C85.7672 53.129 85.9966 52.7857 86.2858 52.4965C86.575 52.2073 86.9183 51.9779 87.2961 51.8214C87.6739 51.6649 88.0789 51.5844 88.4878 51.5844H155.853C156.679 51.5844 157.471 51.9125 158.055 52.4965C158.639 53.0805 158.967 53.8726 158.967 54.6986C158.967 55.5245 158.639 56.3166 158.055 56.9006C157.471 57.4846 156.679 57.8127 155.853 57.8127V57.8127Z" fill="#CCCCCC"/>
<path d="M76.4218 70.55H26.1597C25.7638 70.5496 25.3842 70.3921 25.1043 70.1122C24.8243 69.8323 24.6668 69.4527 24.6664 69.0568V29.83C24.6668 29.4341 24.8243 29.0545 25.1043 28.7746C25.3842 28.4947 25.7638 28.3372 26.1597 28.3368H76.4218C76.8177 28.3372 77.1973 28.4947 77.4772 28.7746C77.7572 29.0545 77.9146 29.4341 77.9151 29.83V69.0568C77.9146 69.4527 77.7572 69.8323 77.4772 70.1122C77.1973 70.3921 76.8177 70.5496 76.4218 70.55V70.55Z" fill="#7190FF"/>
</svg>
