<?xml version="1.0" standalone="no"?>
<!DOCTYPE svg PUBLIC "-//W3C//DTD SVG 20010904//EN"
 "http://www.w3.org/TR/2001/REC-SVG-20010904/DTD/svg10.dtd">
<svg version="1.0" xmlns="http://www.w3.org/2000/svg"
 width="268.000000pt" height="188.000000pt" viewBox="0 0 268.000000 188.000000"
 preserveAspectRatio="xMidYMid meet">

<g transform="translate(0.000000,188.000000) scale(0.100000,-0.100000)"
fill="#000000" stroke="none">
<path d="M740 1725 c0 0 0 -1553 0 -1561 0 -7 129 -10 407 -10 l406 -1 194
191 193 191 0 105 c0 58 1 166 1 240 0 74 0 295 0 490 l-1 355 -600 0 c-330 0
-600 0 -600 0z m1120 -645 l0 -540 -150 0 -149 0 -3 -137 -3 -138 -367 -3
-368 -2 0 680 0 680 520 0 520 0 0 -540z"/>
<path d="M1690 1534 c0 -26 -5 -33 -32 -42 l-33 -10 37 -1 c34 -1 37 -4 41
-33 l4 -33 1 33 c2 29 5 32 32 32 17 0 30 5 30 10 0 6 -13 10 -30 10 -22 0
-30 5 -30 18 0 9 -5 24 -10 32 -7 11 -10 8 -10 -16z"/>
<path d="M1455 1455 c-53 -101 -47 -97 -140 -108 -17 -2 -7 -5 23 -6 56 -1 58
-3 37 -41 -18 -32 -18 -40 0 -40 8 0 23 17 34 39 17 31 27 39 58 44 87 15 90
13 109 -53 13 -46 21 -60 35 -60 24 0 24 7 -1 70 -11 28 -20 53 -20 55 0 2 21
7 48 11 74 10 79 20 8 16 l-65 -4 -16 58 c-28 102 -31 109 -46 112 -9 1 -33
-33 -64 -93z m76 -20 c7 -30 9 -58 6 -61 -3 -4 -27 -9 -52 -12 l-46 -5 33 67
c18 36 36 66 39 66 4 0 13 -25 20 -55z"/>
<path d="M1000 1143 c0 -10 75 -13 345 -13 223 0 345 4 345 10 0 6 -50 10
-127 11 -71 0 -226 1 -345 2 -170 2 -218 -1 -218 -10z"/>
<path d="M1000 1040 c0 -6 122 -10 345 -10 223 0 345 4 345 10 0 6 -122 10
-345 10 -223 0 -345 -4 -345 -10z"/>
<path d="M1000 940 c0 -6 122 -10 345 -10 223 0 345 4 345 10 0 6 -122 10
-345 10 -223 0 -345 -4 -345 -10z"/>
<path d="M1000 840 c0 -6 65 -10 175 -10 110 0 175 4 175 10 0 6 -65 10 -175
10 -110 0 -175 -4 -175 -10z"/>
<path d="M1020 696 c-14 -8 -37 -19 -52 -25 -18 -7 -28 -18 -28 -31 0 -11 -8
-32 -17 -46 -15 -24 -15 -28 0 -57 8 -18 18 -42 22 -54 4 -14 17 -26 32 -30
15 -3 38 -12 52 -19 13 -7 27 -12 30 -11 86 37 94 42 102 58 6 12 28 61 35 79
2 5 -17 53 -35 89 -4 8 -14 18 -22 21 -8 4 -28 15 -46 24 -37 19 -41 19 -73 2z
m86 -70 c56 -47 20 -146 -52 -146 -31 0 -84 50 -84 79 0 77 80 116 136 67z"/>
<path d="M946 407 c-32 -42 -33 -51 -3 -43 16 4 26 -1 37 -17 13 -21 14 -21
25 23 19 74 -15 95 -59 37z"/>
<path d="M1102 427 c-7 -8 -8 -26 -2 -51 10 -47 16 -53 29 -28 8 14 17 18 37
14 29 -5 29 -3 -8 51 -21 29 -40 34 -56 14z"/>
</g>
</svg>
