<svg width="307" height="231" viewBox="0 0 307 231" fill="none" xmlns="http://www.w3.org/2000/svg">
<path d="M290.5 230.145H16.5C12.1254 230.14 7.93148 228.4 4.8382 225.307C1.74492 222.213 0.00494149 218.019 0 213.645V16.6449C0.00493885 12.2704 1.74492 8.0764 4.8382 4.98312C7.93148 1.88984 12.1254 0.149867 16.5 0.144928H290.5C294.875 0.149869 299.069 1.88984 302.162 4.98312C305.255 8.0764 306.995 12.2704 307 16.6449V213.645C306.995 218.019 305.255 222.213 302.162 225.307C299.069 228.4 294.875 230.14 290.5 230.145Z" fill="#E6E6E6"/>
<path d="M21.5647 216.992H285.435C287.557 216.992 289.592 216.149 291.092 214.649C292.592 213.149 293.435 211.114 293.435 208.992V21.2977C293.435 19.176 292.592 17.1411 291.092 15.6409C289.592 14.1406 287.557 13.2977 285.435 13.2977H21.5647C19.443 13.2977 17.4081 14.1406 15.9078 15.6409C14.4075 17.1411 13.5647 19.176 13.5647 21.2977V208.992C13.5647 211.114 14.4075 213.149 15.9078 214.649C17.4081 216.149 19.443 216.992 21.5647 216.992Z" fill="white"/>
<path d="M41.0708 109.425C39.4886 109.425 37.9712 110.053 36.8525 111.172C35.7337 112.291 35.1052 113.808 35.1052 115.391C35.1052 116.973 35.7337 118.49 36.8525 119.609C37.9712 120.728 39.4886 121.356 41.0708 121.356H265.929C267.511 121.356 269.029 120.728 270.148 119.609C271.266 118.49 271.895 116.973 271.895 115.391C271.895 113.808 271.266 112.291 270.148 111.172C269.029 110.053 267.511 109.425 265.929 109.425H41.0708Z" fill="#E6E6E6"/>
<path d="M41.0708 146.137C39.4886 146.137 37.9712 146.765 36.8525 147.884C35.7337 149.003 35.1052 150.52 35.1052 152.102C35.1052 153.684 35.7337 155.202 36.8525 156.321C37.9712 157.439 39.4886 158.068 41.0708 158.068H265.929C267.511 158.068 269.029 157.439 270.148 156.321C271.266 155.202 271.895 153.684 271.895 152.102C271.895 150.52 271.266 149.003 270.148 147.884C269.029 146.765 267.511 146.137 265.929 146.137H41.0708Z" fill="#E6E6E6"/>
<path d="M141.569 184.684C139.987 184.684 138.469 185.312 137.35 186.431C136.232 187.55 135.603 189.067 135.603 190.649C135.603 192.232 136.232 193.749 137.35 194.868C138.469 195.987 139.987 196.615 141.569 196.615H165.431C167.013 196.615 168.531 195.987 169.65 194.868C170.768 193.749 171.397 192.232 171.397 190.649C171.397 189.067 170.768 187.55 169.65 186.431C168.531 185.312 167.013 184.684 165.431 184.684H141.569Z" fill="#7190FF"/>
<path d="M121.524 33.6747C121.038 33.6752 120.571 33.8687 120.227 34.2129C119.883 34.557 119.689 35.0236 119.689 35.5103V82.1065C119.689 82.5931 119.883 83.0597 120.227 83.4039C120.571 83.748 121.038 83.9416 121.524 83.942H185.476C185.962 83.9416 186.429 83.748 186.773 83.4039C187.117 83.0597 187.311 82.5931 187.311 82.1065V35.5103C187.311 35.0236 187.117 34.557 186.773 34.2128C186.429 33.8687 185.962 33.6752 185.476 33.6747L121.524 33.6747Z" fill="#7190FF"/>
<path d="M153.5 63.7506C159.076 63.7506 163.596 59.2306 163.596 53.655C163.596 48.0793 159.076 43.5593 153.5 43.5593C147.924 43.5593 143.404 48.0793 143.404 53.655C143.404 59.2306 147.924 63.7506 153.5 63.7506Z" fill="white"/>
<path d="M170.02 79.3531C170.024 80.9486 169.646 82.5219 168.919 83.9421H138.081C137.295 82.4029 136.918 80.6877 136.985 78.9608C137.052 77.234 137.561 75.5532 138.464 74.0795C139.366 72.6057 140.632 71.3884 142.14 70.5441C143.648 69.6998 145.347 69.2568 147.075 69.2574H159.925C162.601 69.2559 165.168 70.3175 167.061 72.2087C168.954 74.0999 170.019 76.6657 170.02 79.3417V79.3531Z" fill="white"/>
<path d="M153.5 63.7506C159.076 63.7506 163.596 59.2306 163.596 53.655C163.596 48.0793 159.076 43.5593 153.5 43.5593C147.924 43.5593 143.404 48.0793 143.404 53.655C143.404 59.2306 147.924 63.7506 153.5 63.7506Z" fill="white"/>
<path d="M170.02 79.3531C170.024 80.9486 169.646 82.5219 168.919 83.9421H138.081C137.295 82.4029 136.918 80.6877 136.985 78.9608C137.052 77.234 137.561 75.5532 138.464 74.0795C139.366 72.6057 140.632 71.3884 142.14 70.5441C143.648 69.6998 145.347 69.2568 147.075 69.2574H159.925C162.601 69.2559 165.168 70.3175 167.061 72.2087C168.954 74.0999 170.019 76.6657 170.02 79.3417V79.3531Z" fill="white"/>
</svg>
