<svg width="307" height="231" viewBox="0 0 307 231" fill="none" xmlns="http://www.w3.org/2000/svg">
<path d="M290.5 230.462H16.5C12.1255 230.457 7.93152 228.717 4.83826 225.624C1.745 222.531 0.00502865 218.337 0 213.962V16.962C0.00494413 12.5875 1.74492 8.39348 4.8382 5.3002C7.93147 2.20692 12.1254 0.46695 16.5 0.462006H290.5C294.875 0.467034 299.069 2.20703 302.162 5.30029C305.255 8.39355 306.995 12.5875 307 16.962V213.962C306.995 218.337 305.255 222.531 302.162 225.624C299.069 228.717 294.875 230.457 290.5 230.462Z" fill="#E6E6E6"/>
<path d="M21.5648 217.309H285.435C287.557 217.309 289.592 216.466 291.092 214.966C292.593 213.466 293.435 211.431 293.435 209.309V21.6149C293.435 19.4932 292.593 17.4583 291.092 15.958C289.592 14.4577 287.557 13.6149 285.435 13.6149H21.5648C19.4431 13.6149 17.4082 14.4577 15.908 15.958C14.4077 17.4583 13.5648 19.4932 13.5648 21.6149V209.309C13.5648 211.431 14.4077 213.466 15.908 214.966C17.4082 216.466 19.4431 217.309 21.5648 217.309Z" fill="white"/>
<path d="M253.982 71.9352H85.4315C84.641 71.9352 83.8582 72.0909 83.1279 72.3934C82.3975 72.6959 81.7339 73.1394 81.1749 73.6983C80.6159 74.2573 80.1726 74.9209 79.8701 75.6512C79.5675 76.3816 79.4118 77.1644 79.4118 77.9549C79.4118 78.7454 79.5675 79.5282 79.8701 80.2585C80.1726 80.9889 80.6159 81.6525 81.1749 82.2115C81.7339 82.7704 82.3975 83.2138 83.1279 83.5164C83.8582 83.8189 84.641 83.9746 85.4315 83.9746H253.982C255.579 83.9746 257.11 83.3404 258.239 82.2115C259.368 81.0825 260.002 79.5514 260.002 77.9549C260.002 76.3584 259.368 74.8272 258.239 73.6983C257.11 72.5694 255.579 71.9352 253.982 71.9352Z" fill="#E6E6E6"/>
<path d="M85.4315 108.979C84.641 108.979 83.8582 109.135 83.1279 109.438C82.3975 109.74 81.7339 110.183 81.1749 110.742C80.6159 111.301 80.1726 111.965 79.8701 112.695C79.5675 113.426 79.4118 114.208 79.4118 114.999C79.4118 115.79 79.5675 116.572 79.8701 117.303C80.1726 118.033 80.6159 118.697 81.1749 119.256C81.7339 119.815 82.3975 120.258 83.1279 120.56C83.8582 120.863 84.641 121.019 85.4315 121.019H253.982C255.579 121.019 257.11 120.384 258.239 119.256C259.368 118.127 260.002 116.596 260.002 114.999C260.002 113.402 259.368 111.871 258.239 110.742C257.11 109.614 255.579 108.979 253.982 108.979H85.4315Z" fill="#E6E6E6"/>
<path d="M85.4315 146.024C83.835 146.024 82.3038 146.658 81.1749 147.787C80.046 148.916 79.4118 150.447 79.4118 152.043C79.4118 153.64 80.046 155.171 81.1749 156.3C82.3038 157.429 83.835 158.063 85.4315 158.063H253.982C255.579 158.063 257.11 157.429 258.239 156.3C259.368 155.171 260.002 153.64 260.002 152.043C260.002 150.447 259.368 148.916 258.239 147.787C257.11 146.658 255.579 146.024 253.982 146.024H85.4315Z" fill="#E6E6E6"/>
<path d="M53.4809 85.8268C57.5727 85.8268 60.8897 82.5097 60.8897 78.4179C60.8897 74.3261 57.5727 71.0091 53.4809 71.0091C49.3891 71.0091 46.0721 74.3261 46.0721 78.4179C46.0721 82.5097 49.3891 85.8268 53.4809 85.8268Z" fill="#7190FF"/>
<path d="M53.4809 122.871C57.5727 122.871 60.8897 119.554 60.8897 115.462C60.8897 111.37 57.5727 108.053 53.4809 108.053C49.3891 108.053 46.0721 111.37 46.0721 115.462C46.0721 119.554 49.3891 122.871 53.4809 122.871Z" fill="#E6E6E6"/>
<path d="M53.4809 159.915C57.5727 159.915 60.8897 156.598 60.8897 152.506C60.8897 148.414 57.5727 145.097 53.4809 145.097C49.3891 145.097 46.0721 148.414 46.0721 152.506C46.0721 156.598 49.3891 159.915 53.4809 159.915Z" fill="#E6E6E6"/>
<path d="M186.84 77.9549C186.84 78.7454 186.684 79.5281 186.382 80.2585C186.079 80.9888 185.636 81.6524 185.077 82.2114C184.518 82.7704 183.854 83.2138 183.124 83.5163C182.393 83.8188 181.611 83.9745 180.82 83.9745H85.6484C84.1614 83.9963 82.7167 83.4801 81.5803 82.5209C80.4438 81.5618 79.6923 80.2243 79.464 78.7548C79.3517 77.9045 79.4221 77.0401 79.6705 76.2192C79.9188 75.3983 80.3395 74.6398 80.9042 73.9943C81.469 73.3489 82.165 72.8313 82.9457 72.4763C83.7264 72.1212 84.5739 71.9367 85.4315 71.9352H180.82C182.417 71.9352 183.948 72.5694 185.077 73.6983C186.206 74.8272 186.84 76.3583 186.84 77.9548V77.9549Z" fill="#7190FF"/>
</svg>
